<svg xmlns="http://www.w3.org/2000/svg" width="24" height="24" viewBox="0 0 24 24">
  <path id="Accepted_Icon" d="M90.32-862.48l8.46-8.46-1.68-1.68-6.78,6.78-3.42-3.42-1.68,1.68ZM92-856a11.685,11.685,0,0,1-4.68-.945,12.119,12.119,0,0,1-3.81-2.565,12.118,12.118,0,0,1-2.565-3.81A11.685,11.685,0,0,1,80-868a11.686,11.686,0,0,1,.945-4.68,12.118,12.118,0,0,1,2.565-3.81,12.118,12.118,0,0,1,3.81-2.565A11.686,11.686,0,0,1,92-880a11.686,11.686,0,0,1,4.68.945,12.118,12.118,0,0,1,3.81,2.565,12.118,12.118,0,0,1,2.565,3.81A11.685,11.685,0,0,1,104-868a11.685,11.685,0,0,1-.945,4.68,12.117,12.117,0,0,1-2.565,3.81,12.119,12.119,0,0,1-3.81,2.565A11.685,11.685,0,0,1,92-856Z" transform="translate(-80 880)" fill="#4bff00"/>
</svg>
