<svg id="Apple_Icon" xmlns="http://www.w3.org/2000/svg" width="17.027" height="21.403" viewBox="0 0 17.027 21.403">
  <path id="Path_2" data-name="Path 2" d="M14.725,11.866a4.481,4.481,0,0,1,2.259-4.075,4.945,4.945,0,0,0-3.828-2.123,5.471,5.471,0,0,0-2.3.429,11.282,11.282,0,0,1-1.695.557,5.088,5.088,0,0,1-1.528-.472,5.168,5.168,0,0,0-1.924-.472,4.767,4.767,0,0,0-2.489.74,5.3,5.3,0,0,0-1.84,1.962A7.336,7.336,0,0,0,.5,12.1a12.064,12.064,0,0,0,.648,3.86A13.027,13.027,0,0,0,2.7,19.2,10.425,10.425,0,0,0,4.16,21.044,2.455,2.455,0,0,0,6,21.9a4.659,4.659,0,0,0,1.589-.451,4.534,4.534,0,0,1,1.841-.406,4.394,4.394,0,0,1,1.778.406,4.574,4.574,0,0,0,1.673.429,2.77,2.77,0,0,0,1.8-.835,5.081,5.081,0,0,0,.637-.708q.4-.524.764-1.072.3-.472.575-.965a9.7,9.7,0,0,0,.512-1.094q.1-.236.188-.482c.056-.164.111-.332.167-.5a4.758,4.758,0,0,1-2.8-4.353ZM12.088,3.931a4.731,4.731,0,0,0,1.109-3V.715A1.132,1.132,0,0,0,13.177.5a4.09,4.09,0,0,0-1.643.493A4.556,4.556,0,0,0,10.1,2.13a4.44,4.44,0,0,0-1.13,2.9v.2a1.09,1.09,0,0,0,.021.2,3.462,3.462,0,0,0,3.1-1.5Z" transform="translate(-0.5 -0.5)" fill="#fff"/>
</svg>
