<svg id="Bronce" xmlns="http://www.w3.org/2000/svg" width="56" height="62.222" viewBox="0 0 56 62.222">
  <path id="Path_2344" data-name="Path 2344" d="M7.467,42.2V20.026L28,8.711,48.533,20.026V42.2L28,53.511ZM28,0,0,15.556V46.667L28,62.222,56,46.667V15.556Z" fill="#936635"/>
  <path id="Path_2345" data-name="Path 2345" d="M0,281.111l7.506-4.449-.04-.022V254.47l.19-.1L0,250Z" transform="translate(0 -234.444)" fill="#b2804a"/>
  <path id="Path_2346" data-name="Path 2346" d="M450,0V8.711l20.533,11.315L478,15.556Z" transform="translate(-422)" fill="#b2804a"/>
  <path id="Path_2347" data-name="Path 2347" d="M450,690.619v8.711l28-15.556-7.605-4.394Z" transform="translate(-422 -637.108)" fill="#6e4315"/>
  <path id="Path_2348" data-name="Path 2348" d="M28,0,0,15.556v.153l7.467,4.318L28,8.711Z" fill="#cb9c69"/>
  <path id="Path_2349" data-name="Path 2349" d="M48.215,42.187,28,53.3,7.467,42.187,27.757,53.511,28,62.222l.247-8.711,20.2-10.861,7.526,4.017-7.213-4.48-.222-22.161ZM28,0,0,15.556V46.667L.452,16.306l7.014,3.72L.738,15.765Z" fill="#ffc484"/>
  <g id="Group_1041" data-name="Group 1041" transform="translate(21.106 23.251)">
    <path id="Path_2350" data-name="Path 2350" d="M6.878,0,0,3.93v7.86l6.878,3.93,6.878-3.93V3.93Z" transform="translate(0)" fill="#c3c6c6"/>
    <path id="Path_2351" data-name="Path 2351" d="M6.878,0,0,3.93v5.4L6.878,7.86Z" transform="translate(0)" fill="#cb9c69"/>
    <path id="Path_2352" data-name="Path 2352" d="M140,167.86l6.878-3.93L140,160Z" transform="translate(-133.123 -152.14)" fill="#6e4315"/>
    <path id="Path_2353" data-name="Path 2353" d="M140,0V7.86l6.878-3.93Z" transform="translate(-133.123)" fill="#b1804a"/>
    <path id="Path_2354" data-name="Path 2354" d="M0,87.86l6.878-3.93L0,80Z" transform="translate(0 -76.07)" fill="#b1804a"/>
    <path id="Path_2368" data-name="Path 2368" d="M138.093,374.11l6.929-3.969v7.891Z" transform="translate(-138.093 -362.311)" fill="#936635"/>
  </g>
  <path id="Path_2355" data-name="Path 2355" d="M27.984,31.111l6.842-3.948v7.881Z" fill="#936635"/>
</svg>
