<svg xmlns="http://www.w3.org/2000/svg" width="24" height="24" viewBox="0 0 24 24">
  <g id="Close_Icon" transform="translate(9245 2840)">
    <path id="cancel_24dp_5F6368_FILL1_wght400_GRAD0_opsz24_1_" data-name="cancel_24dp_5F6368_FILL1_wght400_GRAD0_opsz24 (1)" d="M87.68-862,92-866.32,96.32-862,98-863.68,93.68-868,98-872.32,96.32-874,92-869.68,87.68-874,86-872.32,90.32-868,86-863.68ZM92-856a11.685,11.685,0,0,1-4.68-.945,12.118,12.118,0,0,1-3.81-2.565,12.119,12.119,0,0,1-2.565-3.81A11.685,11.685,0,0,1,80-868a11.685,11.685,0,0,1,.945-4.68,12.119,12.119,0,0,1,2.565-3.81,12.118,12.118,0,0,1,3.81-2.565A11.685,11.685,0,0,1,92-880a11.685,11.685,0,0,1,4.68.945,12.118,12.118,0,0,1,3.81,2.565,12.119,12.119,0,0,1,2.565,3.81A11.685,11.685,0,0,1,104-868a11.685,11.685,0,0,1-.945,4.68,12.119,12.119,0,0,1-2.565,3.81,12.118,12.118,0,0,1-3.81,2.565A11.685,11.685,0,0,1,92-856Z" transform="translate(-9325 -1960)" fill="#fff" opacity="0.38"/>
    <path id="cancel_24dp_5F6368_FILL1_wght400_GRAD0_opsz24_1_2" data-name="cancel_24dp_5F6368_FILL1_wght400_GRAD0_opsz24 (1)" d="M281.723-668.306l4.43-4.21,4.43,4.21,1.723-1.637-4.43-4.21,4.43-4.21L290.583-680l-4.43,4.21-4.43-4.21L280-678.363l4.43,4.21-4.43,4.21Z" transform="translate(-9519.153 -2153.847)" fill="#1c1c1c"/>
  </g>
</svg>
