<svg xmlns="http://www.w3.org/2000/svg" width="17.699" height="17.699" viewBox="0 0 17.699 17.699">
  <g id="Comment_Icon" transform="translate(-78 -615)">
    <path id="maps_ugc_24dp_5F6368_FILL1_wght400_GRAD0_opsz24" d="M40-862.3l1.643-5.647a8.626,8.626,0,0,1-.6-1.77,8.568,8.568,0,0,1-.2-1.854,8.207,8.207,0,0,1,.664-3.287,8.511,8.511,0,0,1,1.8-2.676,8.511,8.511,0,0,1,2.676-1.8A8.209,8.209,0,0,1,49.271-880a8.209,8.209,0,0,1,3.287.664,8.512,8.512,0,0,1,2.676,1.8,8.511,8.511,0,0,1,1.8,2.676,8.207,8.207,0,0,1,.664,3.287,8.207,8.207,0,0,1-.664,3.287,8.512,8.512,0,0,1-1.8,2.676,8.512,8.512,0,0,1-2.676,1.8,8.209,8.209,0,0,1-3.287.664,8.571,8.571,0,0,1-1.854-.2,8.627,8.627,0,0,1-1.77-.6Z" transform="translate(38 1495)" fill="#5f6368"/>
    <g id="Group_28" data-name="Group 28">
      <circle id="Ellipse_15" data-name="Ellipse 15" cx="1.5" cy="1.5" r="1.5" transform="translate(82 622)" fill="#fff"/>
      <circle id="Ellipse_16" data-name="Ellipse 16" cx="1.5" cy="1.5" r="1.5" transform="translate(86 622)" fill="#fff"/>
      <circle id="Ellipse_17" data-name="Ellipse 17" cx="1.5" cy="1.5" r="1.5" transform="translate(90 622)" fill="#fff"/>
    </g>
  </g>
</svg>
