<svg xmlns="http://www.w3.org/2000/svg" width="17.82" height="16.35" viewBox="0 0 17.82 16.35">
  <path id="Like_Icon_On" d="M88.91-837.65l-1.292-1.158q-2.25-2.027-3.72-3.5a24.64,24.64,0,0,1-2.339-2.64,8.386,8.386,0,0,1-1.214-2.15,5.993,5.993,0,0,1-.345-2,4.746,4.746,0,0,1,1.4-3.5,4.746,4.746,0,0,1,3.5-1.4,5.141,5.141,0,0,1,2.205.49,5.283,5.283,0,0,1,1.8,1.381,5.284,5.284,0,0,1,1.8-1.381A5.141,5.141,0,0,1,92.92-854a4.746,4.746,0,0,1,3.5,1.4,4.746,4.746,0,0,1,1.4,3.5,5.993,5.993,0,0,1-.345,2,8.386,8.386,0,0,1-1.214,2.15,24.64,24.64,0,0,1-2.339,2.64q-1.47,1.47-3.72,3.5Z" transform="translate(-80 854)" fill="#ff00f2"/>
</svg>
