<svg xmlns="http://www.w3.org/2000/svg" width="23.667" height="29.584" viewBox="0 0 23.667 29.584">
  <path id="Notification_Icon" d="M160-854.854v-2.958h2.958v-10.354a8.662,8.662,0,0,1,1.849-5.455,8.532,8.532,0,0,1,4.807-3.125v-1.035a2.14,2.14,0,0,1,.647-1.572,2.14,2.14,0,0,1,1.572-.647,2.14,2.14,0,0,1,1.572.647,2.14,2.14,0,0,1,.647,1.572v1.035a8.531,8.531,0,0,1,4.807,3.125,8.662,8.662,0,0,1,1.849,5.455v10.354h2.958v2.958Zm11.833,4.438a2.849,2.849,0,0,1-2.089-.869,2.849,2.849,0,0,1-.869-2.089h5.917a2.849,2.849,0,0,1-.869,2.089A2.849,2.849,0,0,1,171.833-850.416Z" transform="translate(-160 880)"/>
</svg>
