<svg xmlns="http://www.w3.org/2000/svg" width="35.72" height="35.72" viewBox="0 0 35.72 35.72">
  <path id="QR_Yellow" d="M80-871.07V-880h8.93v3.572H83.572v5.358Zm0,26.79v-8.93h3.572v5.358H88.93v3.572Zm26.79,0v-3.572h5.358v-5.358h3.572v8.93Zm5.358-26.79v-5.358H106.79V-880h8.93v8.93Zm-4.465,18.753h2.679v2.679h-2.679Zm0-5.358h2.679V-855h-2.679ZM105-855h2.679v2.679H105Zm-2.679,2.679H105v2.679h-2.679ZM99.646-855h2.679v2.679H99.646ZM105-860.354h2.679v2.679H105Zm-2.679,2.679H105V-855h-2.679Zm-2.679-2.679h2.679v2.679H99.646Zm10.716-14.288v10.716H99.646v-10.716ZM96.074-860.354v10.716H85.358v-10.716Zm0-14.288v10.716H85.358v-10.716ZM93.4-852.317v-5.358H88.037v5.358Zm0-14.288v-5.358H88.037v5.358Zm14.288,0v-5.358h-5.358v5.358Z" transform="translate(-80 880)" fill="#ef0"/>
</svg>
