<svg xmlns="http://www.w3.org/2000/svg" viewBox="0 1.95 39.98 43.2">
  <g id="Receive_Token" transform="translate(-270.089 -355.312)">
    <g id="Group_75" data-name="Group 75" transform="translate(153.961 -258.614)">
      <g id="Group_25" data-name="Group 25" transform="translate(116.128 615.878)">
        <path id="token_24dp_5F6368_FILL1_wght400_GRAD0_opsz24" d="M133.549-863.9l-11.217-6.275L139.99-880l17.658,9.828L146.431-863.9a9,9,0,0,0-2.943-2.055,8.707,8.707,0,0,0-3.5-.722,8.707,8.707,0,0,0-3.5.722A9,9,0,0,0,133.549-863.9Zm4.22,27.1L120-846.683V-866.4l11.383,6.386a5.927,5.927,0,0,0-.222,1.083,10.907,10.907,0,0,0-.056,1.138,8.7,8.7,0,0,0,1.832,5.442,8.646,8.646,0,0,0,4.831,3.165Zm2.221-16.547a4.278,4.278,0,0,1-3.137-1.3,4.278,4.278,0,0,1-1.3-3.137,4.278,4.278,0,0,1,1.3-3.137,4.278,4.278,0,0,1,3.137-1.3,4.278,4.278,0,0,1,3.137,1.3,4.278,4.278,0,0,1,1.3,3.137,4.278,4.278,0,0,1-1.3,3.137A4.278,4.278,0,0,1,139.99-853.347Zm2.221,16.547v-12.383a8.646,8.646,0,0,0,4.831-3.165,8.7,8.7,0,0,0,1.832-5.442,10.9,10.9,0,0,0-.056-1.138,5.927,5.927,0,0,0-.222-1.083L159.98-866.4v19.712Z" transform="translate(-120 880)"/>
      </g>
      <g id="Ellipse_18" data-name="Ellipse 18" transform="translate(130.131 632.061)" fill="#ff00f2" stroke="#000" stroke-width="2">
        <circle cx="6.038" cy="6.038" r="6.038" stroke="none"/>
        <circle cx="6.038" cy="6.038" r="5.038" fill="none"/>
      </g>
    </g>
  </g>
</svg>
